<svg width="36" height="36" viewBox="0 0 36 36" fill="none" xmlns="http://www.w3.org/2000/svg">
<g clip-path="url(#clip0_523_1404)">
<path d="M16.3301 5.05C18.4962 5.04802 20.6143 5.68855 22.4163 6.89054C24.2183 8.09254 25.6234 9.80201 26.4537 11.8027C27.284 13.8034 27.5023 16.0054 27.0809 18.1301C26.6595 20.2549 25.6174 22.2069 24.0864 23.7393C22.5555 25.2717 20.6044 26.3155 18.48 26.7389C16.3556 27.1622 14.1534 26.9459 12.152 26.1174C10.1506 25.2889 8.43983 23.8855 7.23619 22.0845C6.03254 20.2836 5.39008 18.1661 5.39008 16C5.40322 13.1017 6.55972 10.3256 8.60824 8.27522C10.6568 6.22482 13.4318 5.06578 16.3301 5.05ZM16.3301 3C13.7589 3 11.2455 3.76244 9.10767 5.1909C6.96983 6.61935 5.30359 8.64968 4.31965 11.0251C3.33571 13.4006 3.07827 16.0144 3.57988 18.5362C4.08148 21.0579 5.31961 23.3743 7.1377 25.1924C8.95578 27.0105 11.2722 28.2486 13.7939 28.7502C16.3157 29.2518 18.9295 28.9944 21.305 28.0104C23.6804 27.0265 25.7107 25.3603 27.1392 23.2224C28.5676 21.0846 29.3301 18.5712 29.3301 16C29.3301 12.5522 27.9604 9.24558 25.5225 6.80761C23.0845 4.36964 19.7779 3 16.3301 3Z" fill="black"/>
<path d="M35 33.29L27.63 25.87L26.21 27.28L33.58 34.7C33.6725 34.7932 33.7826 34.8673 33.9038 34.918C34.025 34.9687 34.155 34.9951 34.2864 34.9956C34.4178 34.996 34.548 34.9706 34.6696 34.9207C34.7912 34.8709 34.9017 34.7976 34.995 34.705C35.0882 34.6124 35.1623 34.5024 35.213 34.3812C35.2637 34.2599 35.2901 34.1299 35.2905 33.9985C35.291 33.8671 35.2656 33.7369 35.2157 33.6154C35.1659 33.4938 35.0925 33.3832 35 33.29Z" fill="black"/>
</g>
<defs>
<clipPath id="clip0_523_1404">
<rect width="36" height="36" fill="white"/>
</clipPath>
</defs>
</svg>
